<?xml version="1.0" encoding="UTF-8" standalone="no"?>
<!DOCTYPE svg PUBLIC "-//W3C//DTD SVG 1.1//EN" "http://www.w3.org/Graphics/SVG/1.1/DTD/svg11.dtd">
<svg width="100%" height="100%" viewBox="0 0 190 194" version="1.1" xmlns="http://www.w3.org/2000/svg" xmlns:xlink="http://www.w3.org/1999/xlink" xml:space="preserve" xmlns:serif="http://www.serif.com/" style="fill-rule:evenodd;clip-rule:evenodd;stroke-linejoin:round;stroke-miterlimit:2;">
    <g id="path298" transform="matrix(10.7214,0,0,10.7214,-3.00018,147.513)">
        <path d="M11.988,-2.673C12.012,-2.679 12.026,-2.679 12.035,-2.673L12.082,-2.673C12.158,-2.673 12.237,-2.664 12.316,-2.649C12.401,-2.632 12.483,-2.62 12.563,-2.614C12.82,-2.573 13.066,-2.521 13.301,-2.45C13.541,-2.386 13.784,-2.321 14.027,-2.251C14.033,-2.233 14.065,-2.228 14.121,-2.228L14.156,-2.228C14.156,-2.251 14.15,-2.266 14.145,-2.274C14.136,-2.28 14.133,-2.289 14.133,-2.298C14.007,-2.594 13.887,-2.887 13.77,-3.177C13.658,-3.464 13.538,-3.754 13.406,-4.044C13.342,-4.185 13.301,-4.29 13.277,-4.36C13.254,-4.431 13.231,-4.492 13.207,-4.548C13.189,-4.609 13.163,-4.671 13.125,-4.735C13.093,-4.806 13.043,-4.902 12.973,-5.028C12.973,-5.043 12.987,-5.063 13.02,-5.087C13.049,-5.11 13.084,-5.137 13.125,-5.169C13.172,-5.198 13.213,-5.228 13.254,-5.251C13.292,-5.28 13.313,-5.301 13.313,-5.31C13.336,-5.339 13.371,-5.359 13.418,-5.368C13.465,-5.383 13.5,-5.403 13.523,-5.427C13.547,-5.456 13.576,-5.485 13.617,-5.509C13.655,-5.532 13.688,-5.556 13.711,-5.579C13.74,-5.579 13.77,-5.567 13.793,-5.544C13.878,-5.441 13.963,-5.345 14.051,-5.251C14.145,-5.163 14.238,-5.069 14.332,-4.97C14.59,-4.671 14.839,-4.36 15.082,-4.032C15.322,-3.71 15.554,-3.382 15.773,-3.048C15.984,-2.743 16.187,-2.43 16.383,-2.11C16.576,-1.788 16.761,-1.466 16.934,-1.138L17.918,0.655C17.941,0.702 17.953,0.731 17.953,0.749C17.953,0.772 17.947,0.784 17.941,0.784L17.754,0.784C17.707,0.784 17.651,0.772 17.59,0.749C17.432,0.708 17.276,0.667 17.121,0.62C16.963,0.573 16.808,0.526 16.652,0.48C16.354,0.4 16.066,0.318 15.785,0.233C15.504,0.154 15.223,0.069 14.941,-0.024C14.66,-0.109 14.382,-0.2 14.109,-0.294C13.834,-0.394 13.562,-0.499 13.289,-0.61C13.037,-0.71 12.779,-0.81 12.516,-0.903C12.258,-1.003 12,-1.105 11.742,-1.208C11.227,-1.41 10.723,-1.612 10.231,-1.817C9.738,-2.028 9.249,-2.254 8.766,-2.497C8.443,-2.644 8.133,-2.796 7.828,-2.954C7.529,-3.118 7.231,-3.288 6.926,-3.47C6.823,-3.531 6.715,-3.59 6.598,-3.646C6.481,-3.707 6.369,-3.769 6.27,-3.833C6.246,-3.862 6.217,-3.883 6.188,-3.892C6.164,-3.906 6.141,-3.927 6.117,-3.95C6.015,-4.026 5.982,-4.126 6.023,-4.243C6.023,-4.267 6.026,-4.281 6.035,-4.29C6.041,-4.305 6.047,-4.319 6.047,-4.337C6.053,-4.36 6.076,-4.372 6.117,-4.372L6.234,-4.313C6.46,-4.211 6.65,-4.129 6.809,-4.067C6.964,-4.012 7.107,-3.956 7.242,-3.903C7.374,-3.856 7.515,-3.804 7.664,-3.751C7.819,-3.695 8.016,-3.61 8.25,-3.493C8.508,-3.376 8.76,-3.271 9.012,-3.177C9.27,-3.089 9.533,-3.016 9.809,-2.954C9.979,-2.907 10.163,-2.86 10.359,-2.813C10.553,-2.767 10.737,-2.72 10.91,-2.673L10.934,-2.685L10.934,-2.708L10.84,-2.802L10.84,-2.837L10.91,-2.837C10.91,-2.837 10.925,-2.831 10.957,-2.825C11.057,-2.793 11.159,-2.761 11.262,-2.731C11.361,-2.699 11.464,-2.673 11.566,-2.649C11.619,-2.632 11.672,-2.617 11.719,-2.603C11.772,-2.594 11.83,-2.582 11.895,-2.567C11.918,-2.559 11.959,-2.556 12.023,-2.556L12.023,-2.591C12.023,-2.605 12.015,-2.614 12,-2.614C11.991,-2.62 11.988,-2.641 11.988,-2.673L12.012,-2.673L11.988,-2.673ZM8.672,-1.993C8.654,-1.984 8.643,-1.973 8.637,-1.958C8.637,-1.94 8.628,-1.929 8.613,-1.923C8.455,-1.703 8.3,-1.492 8.145,-1.29C7.995,-1.094 7.843,-0.895 7.688,-0.692C7.6,-0.59 7.518,-0.481 7.441,-0.364C7.362,-0.247 7.289,-0.136 7.219,-0.036C7.061,0.204 6.92,0.45 6.797,0.702C6.68,0.951 6.574,1.209 6.481,1.476C6.355,1.833 6.273,2.217 6.234,2.624C6.211,2.741 6.199,2.853 6.199,2.964L6.199,3.304C6.199,3.327 6.19,3.342 6.176,3.351L6.152,3.351C6.152,3.342 6.144,3.339 6.129,3.339C6.12,3.339 6.117,3.33 6.117,3.315C6.053,3.228 5.991,3.143 5.93,3.058C5.874,2.97 5.815,2.885 5.754,2.8C5.731,2.744 5.707,2.706 5.684,2.683L5.66,2.683L5.66,2.706C5.66,2.712 5.654,2.724 5.648,2.741C5.64,2.756 5.643,2.776 5.66,2.8L5.777,3.374C5.801,3.491 5.824,3.608 5.848,3.726C5.877,3.849 5.906,3.975 5.93,4.101C5.936,4.13 5.941,4.177 5.941,4.241C5.941,4.247 5.936,4.253 5.93,4.253L5.93,4.241C5.906,4.241 5.886,4.232 5.871,4.218C5.848,4.177 5.815,4.142 5.777,4.112C5.736,4.08 5.707,4.045 5.684,4.007C5.613,3.928 5.549,3.846 5.496,3.761C5.449,3.682 5.402,3.6 5.356,3.515C5.253,3.333 5.156,3.143 5.063,2.94C4.975,2.744 4.893,2.548 4.816,2.354C4.611,1.83 4.453,1.268 4.336,0.667C4.272,0.362 4.233,0.061 4.219,-0.235L4.219,-0.399C4.219,-0.414 4.231,-0.423 4.254,-0.423L4.254,-0.399C4.269,-0.376 4.289,-0.323 4.313,-0.247C4.342,-0.159 4.374,-0.074 4.406,0.011C4.436,0.105 4.465,0.201 4.488,0.304C4.488,0.318 4.5,0.365 4.523,0.444C4.523,0.444 4.529,0.447 4.547,0.456C4.57,0.485 4.582,0.474 4.582,0.421C4.582,0.356 4.576,0.315 4.57,0.292C4.553,0.175 4.538,0.058 4.523,-0.06C4.515,-0.177 4.512,-0.288 4.512,-0.399C4.494,-0.578 4.482,-0.745 4.477,-0.903C4.468,-1.067 4.465,-1.237 4.465,-1.419C4.48,-1.612 4.491,-1.806 4.5,-1.993C4.506,-2.187 4.515,-2.374 4.523,-2.556L4.582,-3.188C4.597,-3.25 4.606,-3.32 4.606,-3.399C4.606,-3.476 4.611,-3.546 4.629,-3.61C4.652,-3.812 4.676,-4.015 4.699,-4.22C4.723,-4.422 4.749,-4.633 4.781,-4.853C4.805,-5.031 4.828,-5.216 4.852,-5.403C4.875,-5.597 4.901,-5.784 4.934,-5.966C4.972,-6.183 5.007,-6.402 5.039,-6.622C5.068,-6.848 5.104,-7.07 5.145,-7.29C5.145,-7.313 5.148,-7.331 5.156,-7.349C5.156,-7.401 5.183,-7.431 5.238,-7.431C5.262,-7.413 5.288,-7.407 5.32,-7.407C5.35,-7.407 5.382,-7.398 5.414,-7.384C5.476,-7.375 5.558,-7.366 5.66,-7.36C5.76,-7.352 5.842,-7.34 5.906,-7.325C5.959,-7.316 5.98,-7.284 5.965,-7.231C5.941,-7.129 5.921,-7.035 5.906,-6.95C5.898,-6.871 5.877,-6.78 5.848,-6.681C5.783,-6.265 5.742,-5.813 5.719,-5.321C5.701,-4.829 5.707,-4.384 5.731,-3.985C5.731,-3.859 5.736,-3.733 5.754,-3.61C5.769,-3.493 5.78,-3.364 5.789,-3.224C5.789,-3.121 5.792,-3.024 5.801,-2.931C5.807,-2.843 5.818,-2.749 5.836,-2.649C5.842,-2.547 5.851,-2.453 5.859,-2.368C5.865,-2.289 5.877,-2.204 5.895,-2.11C5.9,-1.993 5.909,-1.87 5.918,-1.747C5.933,-1.63 5.947,-1.516 5.965,-1.407C5.965,-1.39 5.959,-1.384 5.953,-1.384C5.944,-1.384 5.941,-1.375 5.941,-1.36C5.941,-1.36 5.93,-1.366 5.906,-1.384C5.883,-1.398 5.851,-1.422 5.813,-1.454L5.789,-1.442L5.777,-1.419L5.777,-1.407C5.801,-1.328 5.818,-1.255 5.836,-1.185C5.859,-1.114 5.883,-1.038 5.906,-0.962C5.93,-0.938 5.956,-0.938 5.988,-0.962C5.994,-0.985 6.018,-1.015 6.059,-1.056C6.152,-1.179 6.237,-1.302 6.316,-1.419C6.401,-1.536 6.495,-1.656 6.598,-1.782C6.738,-1.952 6.87,-2.122 6.996,-2.286C7.128,-2.45 7.266,-2.614 7.406,-2.778L7.523,-2.884C7.547,-2.907 7.597,-2.872 7.676,-2.778C7.761,-2.69 7.819,-2.638 7.852,-2.614C7.975,-2.512 8.101,-2.418 8.227,-2.333C8.358,-2.245 8.487,-2.151 8.613,-2.052C8.628,-2.052 8.648,-2.031 8.672,-1.993L8.672,-1.993ZM2.719,-7.677C2.719,-7.659 2.733,-7.642 2.766,-7.618C2.804,-7.577 2.839,-7.539 2.871,-7.501C2.909,-7.46 2.947,-7.431 2.988,-7.407C3.065,-7.328 3.123,-7.278 3.164,-7.255C3.226,-7.19 3.284,-7.132 3.34,-7.079C3.401,-7.032 3.463,-6.974 3.527,-6.903C3.627,-6.801 3.727,-6.719 3.82,-6.657C3.92,-6.593 4.023,-6.511 4.125,-6.411C4.187,-6.347 4.257,-6.297 4.336,-6.259C4.421,-6.218 4.5,-6.168 4.57,-6.106C4.679,-6.013 4.723,-5.895 4.699,-5.755C4.682,-5.731 4.667,-5.676 4.652,-5.591C4.644,-5.512 4.641,-5.456 4.641,-5.427C4.632,-5.38 4.62,-5.333 4.606,-5.286C4.588,-5.239 4.576,-5.192 4.57,-5.145L4.523,-5.145C4.515,-5.145 4.494,-5.157 4.465,-5.181C4.143,-5.397 3.835,-5.62 3.539,-5.849C3.24,-6.083 2.953,-6.332 2.672,-6.599C2.115,-7.097 1.641,-7.636 1.242,-8.216C0.85,-8.778 0.545,-9.394 0.328,-10.067C0.305,-10.144 0.293,-10.199 0.293,-10.231C0.275,-10.237 0.275,-10.246 0.293,-10.255C0.316,-10.27 0.34,-10.278 0.363,-10.278C0.439,-10.255 0.498,-10.231 0.539,-10.208C0.545,-10.19 0.557,-10.185 0.574,-10.185C0.715,-10.073 0.867,-9.974 1.031,-9.88C1.201,-9.792 1.377,-9.71 1.559,-9.634C1.667,-9.578 1.781,-9.531 1.898,-9.493C2.016,-9.452 2.136,-9.414 2.262,-9.376C2.596,-9.273 2.924,-9.177 3.246,-9.083C3.574,-8.995 3.905,-8.901 4.242,-8.802C4.468,-8.737 4.699,-8.679 4.934,-8.626C5.174,-8.579 5.417,-8.544 5.66,-8.521C5.783,-8.497 5.909,-8.477 6.035,-8.462C6.167,-8.444 6.305,-8.433 6.445,-8.427L6.902,-8.368C7.058,-8.336 7.21,-8.312 7.359,-8.298C7.506,-8.289 7.652,-8.274 7.793,-8.251C7.863,-8.233 7.937,-8.222 8.016,-8.216L8.25,-8.216C8.312,-8.198 8.373,-8.192 8.438,-8.192C8.499,-8.192 8.566,-8.184 8.637,-8.169C8.76,-8.16 8.886,-8.151 9.012,-8.146C9.144,-8.137 9.273,-8.134 9.398,-8.134C9.475,-8.116 9.554,-8.104 9.633,-8.099L9.879,-8.099C9.932,-8.099 9.996,-8.087 10.066,-8.063C10.137,-8.046 10.201,-8.008 10.266,-7.946C10.327,-7.882 10.383,-7.817 10.43,-7.747C10.482,-7.683 10.541,-7.621 10.606,-7.56L10.594,-7.524C10.562,-7.524 10.538,-7.519 10.523,-7.513C10.515,-7.504 10.5,-7.501 10.477,-7.501C10.093,-7.501 9.706,-7.495 9.316,-7.489C8.924,-7.48 8.537,-7.492 8.156,-7.524L7.688,-7.524C7.538,-7.53 7.386,-7.542 7.231,-7.56C7.128,-7.574 7.025,-7.583 6.926,-7.583C6.832,-7.589 6.732,-7.601 6.633,-7.618C6.568,-7.633 6.507,-7.642 6.445,-7.642C6.381,-7.642 6.319,-7.645 6.258,-7.653C5.936,-7.691 5.619,-7.735 5.309,-7.782C5.004,-7.835 4.699,-7.902 4.395,-7.981C4.254,-8.005 4.119,-8.034 3.996,-8.075C3.879,-8.113 3.75,-8.151 3.609,-8.192C3.577,-8.192 3.551,-8.195 3.527,-8.204C3.504,-8.21 3.481,-8.216 3.457,-8.216L3.434,-8.192L3.434,-8.169C3.486,-8.146 3.516,-8.134 3.516,-8.134C3.656,-8.087 3.797,-8.034 3.938,-7.981C4.084,-7.926 4.231,-7.876 4.371,-7.829C4.409,-7.806 4.453,-7.785 4.5,-7.771C4.547,-7.753 4.594,-7.735 4.641,-7.712L4.641,-7.688C4.641,-7.68 4.635,-7.677 4.629,-7.677L4.371,-7.677C4.292,-7.683 4.219,-7.694 4.148,-7.712L3.457,-7.771C3.425,-7.771 3.404,-7.762 3.398,-7.747L3.375,-7.747L3.375,-7.735L3.492,-7.677C3.516,-7.653 3.554,-7.624 3.609,-7.595C3.615,-7.586 3.621,-7.574 3.621,-7.56L3.609,-7.536C3.451,-7.513 3.311,-7.519 3.188,-7.56C3.123,-7.583 3.059,-7.601 2.988,-7.618C2.924,-7.633 2.862,-7.653 2.801,-7.677L2.719,-7.677L2.719,-7.677ZM5.449,-8.86C5.464,-8.922 5.476,-8.983 5.484,-9.048C5.499,-9.118 5.52,-9.183 5.543,-9.247C5.558,-9.309 5.569,-9.376 5.578,-9.446C5.593,-9.517 5.613,-9.581 5.637,-9.646L5.754,-10.056C5.777,-10.117 5.792,-10.179 5.801,-10.243C5.807,-10.305 5.824,-10.372 5.848,-10.442L5.965,-10.841C5.988,-10.902 6.003,-10.97 6.012,-11.04C6.018,-11.11 6.035,-11.175 6.059,-11.239L6.176,-11.649C6.199,-11.711 6.214,-11.772 6.223,-11.837C6.229,-11.898 6.246,-11.96 6.27,-12.024L6.387,-12.435L6.504,-12.833C6.519,-12.95 6.551,-13.079 6.598,-13.22C6.621,-13.22 6.636,-13.214 6.645,-13.208C6.65,-13.199 6.662,-13.196 6.68,-13.196C6.703,-13.173 6.715,-13.187 6.715,-13.243L6.715,-13.396C6.73,-13.457 6.738,-13.551 6.738,-13.677L6.738,-13.7C6.744,-13.706 6.75,-13.718 6.75,-13.735C6.75,-13.735 6.756,-13.741 6.773,-13.759L6.785,-13.759C6.8,-13.741 6.814,-13.735 6.832,-13.735C6.856,-13.656 6.873,-13.606 6.891,-13.583C6.967,-13.419 7.046,-13.255 7.125,-13.091C7.21,-12.933 7.292,-12.774 7.371,-12.61C7.471,-12.429 7.576,-12.25 7.688,-12.071C7.805,-11.89 7.928,-11.714 8.063,-11.544C8.35,-11.192 8.663,-10.888 9,-10.63C9.023,-10.606 9.047,-10.586 9.07,-10.571C9.085,-10.554 9.094,-10.542 9.094,-10.536C9.076,-10.519 9.059,-10.513 9.035,-10.513L8.883,-10.513C8.865,-10.513 8.859,-10.504 8.859,-10.489L8.859,-10.478C8.889,-10.46 8.906,-10.445 8.906,-10.431C8.912,-10.422 8.93,-10.41 8.953,-10.396C9.352,-10.105 9.721,-9.812 10.066,-9.517C10.48,-9.18 10.869,-8.837 11.238,-8.485C11.613,-8.134 11.98,-7.765 12.34,-7.384C12.363,-7.343 12.39,-7.308 12.422,-7.278C12.451,-7.246 12.481,-7.211 12.504,-7.173C12.533,-7.149 12.533,-7.126 12.504,-7.103C12.463,-7.062 12.425,-7.023 12.387,-6.985C12.355,-6.944 12.305,-6.915 12.234,-6.892C12.193,-6.859 12.158,-6.859 12.129,-6.892C12.097,-6.915 12.07,-6.93 12.047,-6.938C12.029,-6.953 12.012,-6.968 11.988,-6.985C11.941,-7.023 11.898,-7.062 11.859,-7.103C11.818,-7.141 11.772,-7.173 11.719,-7.196C11.616,-7.272 11.52,-7.349 11.426,-7.419C11.338,-7.489 11.244,-7.554 11.145,-7.618C11.042,-7.68 10.945,-7.738 10.852,-7.794C10.764,-7.855 10.67,-7.917 10.57,-7.981C10.453,-8.066 10.336,-8.148 10.219,-8.228C10.107,-8.304 9.996,-8.392 9.879,-8.485C9.8,-8.547 9.721,-8.605 9.645,-8.661C9.574,-8.714 9.498,-8.778 9.422,-8.849C9.305,-8.919 9.19,-8.989 9.082,-9.06C8.971,-9.13 8.865,-9.203 8.766,-9.282L8.742,-9.282L8.742,-9.271L8.859,-9.095C8.874,-9.071 8.886,-9.048 8.895,-9.024C8.909,-9.007 8.924,-8.983 8.941,-8.954L8.941,-8.942L8.918,-8.942C8.895,-8.942 8.883,-8.945 8.883,-8.954C8.789,-9.007 8.698,-9.054 8.613,-9.095C8.534,-9.142 8.452,-9.2 8.367,-9.271C8.171,-9.37 7.981,-9.517 7.793,-9.704C7.761,-9.719 7.74,-9.73 7.734,-9.739C7.734,-9.745 7.717,-9.754 7.688,-9.763C7.664,-9.739 7.664,-9.716 7.688,-9.692C7.717,-9.622 7.737,-9.546 7.746,-9.47C7.761,-9.399 7.781,-9.332 7.805,-9.27L7.805,-9.247L7.77,-9.247C7.752,-9.247 7.734,-9.259 7.711,-9.282L7.477,-9.458C7.374,-9.534 7.304,-9.59 7.266,-9.622C7.233,-9.651 7.184,-9.698 7.113,-9.763L6.984,-9.903C6.929,-9.927 6.902,-9.938 6.902,-9.938C6.879,-9.953 6.838,-9.944 6.785,-9.915C6.776,-9.906 6.762,-9.874 6.738,-9.821C6.721,-9.798 6.706,-9.769 6.691,-9.739C6.683,-9.716 6.671,-9.692 6.656,-9.669C6.615,-9.566 6.577,-9.458 6.539,-9.341C6.498,-9.224 6.46,-9.112 6.422,-9.013C6.398,-8.948 6.387,-8.901 6.387,-8.872C6.387,-8.84 6.375,-8.793 6.352,-8.731C6.328,-8.676 6.296,-8.664 6.258,-8.696C6.179,-8.702 6.053,-8.72 5.883,-8.743C5.719,-8.772 5.596,-8.793 5.52,-8.802C5.487,-8.831 5.464,-8.852 5.449,-8.86L5.449,-8.86ZM13.77,-7.747C13.682,-7.762 13.576,-7.765 13.453,-7.759C13.336,-7.75 13.236,-7.747 13.16,-7.747C13.105,-7.738 13.055,-7.735 13.008,-7.735C12.967,-7.735 12.92,-7.727 12.867,-7.712C12.727,-7.712 12.612,-7.75 12.527,-7.829L12.352,-8.005C12.343,-8.005 12.34,-8.022 12.34,-8.063L12.527,-8.063C12.589,-8.069 12.65,-8.081 12.715,-8.099C12.785,-8.104 12.838,-8.11 12.879,-8.11C12.926,-8.11 12.976,-8.116 13.031,-8.134C13.037,-8.134 13.043,-8.14 13.043,-8.157L13.043,-8.169C13.02,-8.184 12.99,-8.195 12.961,-8.204C12.938,-8.219 12.914,-8.242 12.891,-8.274L12.891,-8.31C12.914,-8.315 12.94,-8.321 12.973,-8.321C13.011,-8.321 13.043,-8.327 13.066,-8.345C13.231,-8.368 13.395,-8.392 13.559,-8.415C13.729,-8.444 13.898,-8.474 14.063,-8.497C14.186,-8.52 14.312,-8.538 14.438,-8.556C14.569,-8.579 14.707,-8.605 14.848,-8.638L15.188,-8.696C15.24,-8.696 15.258,-8.72 15.234,-8.767L15.188,-8.802C15.188,-8.831 15.205,-8.849 15.246,-8.849C15.299,-8.872 15.346,-8.887 15.387,-8.895C15.434,-8.901 15.483,-8.919 15.539,-8.942C15.905,-9.042 16.272,-9.145 16.641,-9.247C17.016,-9.347 17.391,-9.449 17.766,-9.552C17.789,-9.552 17.839,-9.563 17.918,-9.587C17.918,-9.587 17.924,-9.581 17.941,-9.575L17.941,-9.552C17.941,-9.552 17.924,-9.54 17.895,-9.517C17.605,-9.25 17.312,-8.978 17.016,-8.696C16.717,-8.421 16.418,-8.151 16.113,-7.888C15.832,-7.645 15.545,-7.41 15.258,-7.185C14.968,-6.956 14.678,-6.739 14.391,-6.528C14.133,-6.347 13.866,-6.159 13.594,-5.966C13.327,-5.778 13.069,-5.594 12.82,-5.415C12.563,-5.233 12.308,-5.046 12.059,-4.853C11.807,-4.665 11.555,-4.472 11.297,-4.278C11.109,-4.12 10.922,-3.962 10.734,-3.798C10.547,-3.634 10.362,-3.461 10.184,-3.282C10.16,-3.265 10.128,-3.238 10.09,-3.2C9.949,-3.098 9.809,-3.098 9.668,-3.2C9.627,-3.238 9.609,-3.288 9.609,-3.353C9.624,-3.382 9.633,-3.411 9.633,-3.435C9.639,-3.458 9.65,-3.484 9.668,-3.517L9.762,-3.61C9.902,-3.789 10.046,-3.956 10.195,-4.114C10.342,-4.278 10.5,-4.442 10.664,-4.606C10.726,-4.668 10.793,-4.735 10.863,-4.806C10.934,-4.876 11.007,-4.94 11.086,-5.005C11.467,-5.386 11.859,-5.734 12.258,-6.048C12.357,-6.133 12.46,-6.215 12.563,-6.294C12.662,-6.379 12.765,-6.47 12.867,-6.563C12.943,-6.625 13.02,-6.692 13.09,-6.763C13.16,-6.833 13.225,-6.915 13.289,-7.009C13.342,-7.117 13.421,-7.211 13.523,-7.29C13.562,-7.328 13.608,-7.387 13.664,-7.466L13.77,-7.688L13.77,-7.747ZM8.531,-7.29C8.546,-7.313 8.572,-7.319 8.613,-7.313C8.637,-7.313 8.663,-7.296 8.695,-7.267C8.804,-7.196 8.918,-7.114 9.035,-7.02C9.152,-6.933 9.261,-6.839 9.363,-6.739C9.439,-6.669 9.507,-6.59 9.563,-6.505C9.615,-6.426 9.68,-6.344 9.75,-6.259C9.812,-6.156 9.844,-6.036 9.844,-5.895C9.844,-5.714 9.812,-5.515 9.75,-5.298C9.732,-5.274 9.718,-5.242 9.703,-5.204C9.694,-5.163 9.683,-5.125 9.668,-5.087C9.65,-5.031 9.633,-4.964 9.609,-4.888C9.586,-4.785 9.604,-4.671 9.668,-4.548C9.691,-4.483 9.738,-4.413 9.809,-4.337C9.815,-4.319 9.82,-4.308 9.82,-4.302L9.82,-4.278C9.812,-4.261 9.8,-4.255 9.785,-4.255C9.448,-4.231 9.117,-4.284 8.789,-4.419C8.467,-4.56 8.197,-4.75 7.981,-4.993C7.855,-5.116 7.793,-5.289 7.793,-5.509C7.793,-5.632 7.796,-5.726 7.805,-5.79C7.881,-6.071 8.004,-6.32 8.168,-6.54C8.183,-6.54 8.197,-6.546 8.215,-6.563L8.215,-6.54C8.221,-6.54 8.227,-6.534 8.227,-6.528L8.227,-6.446C8.241,-6.382 8.25,-6.329 8.25,-6.282C8.25,-6.235 8.256,-6.18 8.273,-6.118C8.279,-5.978 8.335,-5.863 8.438,-5.778C8.476,-5.737 8.496,-5.737 8.496,-5.778C8.511,-5.784 8.52,-5.796 8.52,-5.813C8.581,-5.954 8.628,-6.098 8.66,-6.247C8.689,-6.394 8.707,-6.543 8.707,-6.692C8.707,-6.909 8.654,-7.097 8.555,-7.255C8.555,-7.278 8.546,-7.29 8.531,-7.29ZM7.887,-4.22C7.746,-4.22 7.606,-4.223 7.465,-4.231C7.33,-4.246 7.195,-4.27 7.055,-4.302C6.914,-4.325 6.779,-4.363 6.656,-4.419C6.53,-4.48 6.401,-4.542 6.27,-4.606C6.246,-4.63 6.217,-4.645 6.188,-4.653C6.164,-4.659 6.141,-4.677 6.117,-4.7C6.094,-4.724 6.065,-4.747 6.035,-4.77C6.012,-4.8 5.988,-4.829 5.965,-4.853C5.777,-5.093 5.769,-5.427 5.941,-5.849C5.994,-5.948 6.053,-6.039 6.117,-6.118C6.179,-6.194 6.281,-6.285 6.422,-6.388C6.522,-6.449 6.624,-6.505 6.727,-6.552C6.835,-6.604 6.94,-6.651 7.043,-6.692C7.119,-6.722 7.195,-6.745 7.266,-6.763C7.342,-6.777 7.412,-6.801 7.477,-6.833C7.515,-6.839 7.559,-6.845 7.606,-6.845L7.746,-6.845C7.746,-6.821 7.74,-6.81 7.734,-6.81C7.717,-6.786 7.69,-6.754 7.652,-6.716C7.588,-6.651 7.523,-6.552 7.453,-6.411C7.383,-6.27 7.318,-6.168 7.266,-6.106C7.242,-6.065 7.219,-5.989 7.195,-5.872C7.172,-5.755 7.16,-5.638 7.16,-5.52C7.184,-5.269 7.254,-5.087 7.371,-4.97C7.494,-4.853 7.588,-4.773 7.652,-4.735L7.945,-4.571L8.063,-4.513C8.092,-4.48 8.109,-4.454 8.109,-4.431C8.124,-4.39 8.145,-4.372 8.168,-4.372C8.206,-4.363 8.241,-4.36 8.273,-4.36C8.303,-4.36 8.338,-4.352 8.379,-4.337C8.408,-4.319 8.426,-4.313 8.426,-4.313C8.432,-4.313 8.452,-4.308 8.484,-4.302L8.484,-4.278C8.414,-4.255 8.315,-4.243 8.191,-4.243C8.127,-4.226 8.027,-4.22 7.887,-4.22ZM9.645,-6.739C9.659,-6.745 9.668,-6.754 9.668,-6.763C9.668,-6.769 9.674,-6.777 9.691,-6.786C9.768,-6.839 9.844,-6.868 9.914,-6.868C9.967,-6.892 10.02,-6.903 10.066,-6.903L10.231,-6.903C10.277,-6.903 10.324,-6.906 10.371,-6.915C10.418,-6.921 10.465,-6.927 10.512,-6.927C10.55,-6.927 10.559,-6.953 10.535,-7.009C10.535,-7.009 10.526,-7.02 10.512,-7.044L10.512,-7.079C10.512,-7.103 10.518,-7.114 10.535,-7.114L10.547,-7.114C10.857,-7.152 11.156,-7.108 11.438,-6.985L11.602,-6.868C11.654,-6.827 11.701,-6.786 11.742,-6.739C11.804,-6.645 11.827,-6.496 11.813,-6.294C11.804,-6.098 11.769,-5.948 11.707,-5.849C11.651,-5.77 11.605,-5.72 11.566,-5.696C11.502,-5.632 11.438,-5.573 11.367,-5.52C11.297,-5.474 11.23,-5.421 11.168,-5.368C11.065,-5.298 10.963,-5.228 10.863,-5.157C10.77,-5.087 10.67,-5.017 10.57,-4.946C10.482,-4.899 10.4,-4.864 10.324,-4.841C10.245,-4.823 10.16,-4.806 10.066,-4.782L10.055,-4.782C10.037,-4.788 10.011,-4.788 9.973,-4.782C9.932,-4.782 9.914,-4.785 9.914,-4.794C9.943,-4.823 10.031,-4.911 10.031,-4.911C10.093,-4.987 10.175,-5.078 10.277,-5.181C10.386,-5.28 10.471,-5.362 10.535,-5.427C10.559,-5.456 10.585,-5.52 10.617,-5.614C10.647,-5.708 10.67,-5.772 10.688,-5.813C10.726,-5.931 10.717,-6.051 10.664,-6.177C10.6,-6.294 10.526,-6.376 10.441,-6.423C10.301,-6.54 10.143,-6.616 9.973,-6.657C9.926,-6.672 9.873,-6.684 9.82,-6.692C9.773,-6.707 9.715,-6.722 9.645,-6.739L9.645,-6.739Z" style="fill-rule:nonzero;"/>
    </g>
</svg>
