<?xml version="1.0" encoding="UTF-8" standalone="no"?>
<!DOCTYPE svg PUBLIC "-//W3C//DTD SVG 1.1//EN" "http://www.w3.org/Graphics/SVG/1.1/DTD/svg11.dtd">
<svg width="100%" height="100%" viewBox="0 0 50 55" version="1.1" xmlns="http://www.w3.org/2000/svg" xmlns:xlink="http://www.w3.org/1999/xlink" xml:space="preserve" xmlns:serif="http://www.serif.com/" style="fill-rule:evenodd;clip-rule:evenodd;stroke-linejoin:round;stroke-miterlimit:2;">
    <g transform="matrix(-0.553033,-6.7727e-17,8.81329e-17,-0.71966,658.597,-569.897)">
        <path d="M1154.49,-846.732C1154.64,-847.184 1154.81,-847.599 1155.02,-847.975C1155.35,-848.564 1155.71,-849.129 1156.12,-849.671C1156.53,-850.213 1156.99,-850.748 1157.51,-851.274C1158.02,-851.801 1158.61,-852.374 1159.26,-852.993L1160.07,-853.69C1160.18,-854.062 1160.6,-854.612 1161.34,-855.339C1162.07,-856.067 1162.91,-856.834 1163.87,-857.639C1164.82,-858.445 1165.78,-859.227 1166.76,-859.986C1167.74,-860.744 1168.55,-861.325 1169.2,-861.728C1169.31,-862.069 1169.6,-862.587 1170.06,-863.284C1170.52,-863.981 1171.13,-864.678 1171.9,-865.375C1172.66,-866.072 1173.58,-866.684 1174.67,-867.21C1175.76,-867.737 1177.01,-868 1178.42,-868C1179.56,-868 1180.61,-867.853 1181.56,-867.559C1182.51,-867.264 1183.31,-866.893 1183.96,-866.444C1184.61,-865.994 1185.12,-865.507 1185.47,-864.98C1185.82,-864.454 1186,-863.942 1186,-863.447C1186,-862.549 1185.59,-861.743 1184.78,-861.031C1183.96,-860.319 1183.04,-859.637 1182.01,-858.987C1180.7,-858.119 1179.67,-857.322 1178.91,-856.594C1178.15,-855.866 1177.22,-855.239 1176.13,-854.712C1175.76,-854.464 1175.39,-854.186 1175.04,-853.876C1174.68,-853.566 1174.26,-853.187 1173.77,-852.738C1173.28,-852.289 1172.68,-851.754 1171.98,-851.135C1171.27,-850.515 1170.37,-849.772 1169.29,-848.905C1167.93,-847.883 1166.75,-846.953 1165.74,-846.117C1165.08,-845.566 1164.46,-845.025 1163.88,-844.494C1163.58,-844.22 1163.29,-843.947 1163.01,-843.678C1162.19,-842.888 1161.42,-842.083 1160.69,-841.262C1159.95,-840.441 1159.21,-839.534 1158.44,-838.544C1157.85,-837.769 1157.09,-836.972 1156.16,-836.151C1155.24,-835.33 1154.31,-834.541 1153.39,-833.782C1152.82,-833.318 1152.29,-832.863 1151.77,-832.416C1151.45,-832.139 1151.14,-831.863 1150.84,-831.59L1150.96,-831.535L1150.89,-831.458L1150.75,-831.513C1150.38,-831.176 1150.07,-830.852 1149.8,-830.543L1149.93,-830.426L1149.79,-830.268L1149.64,-830.342C1149.46,-830.121 1149.32,-829.907 1149.19,-829.7L1149.19,-829.623L1149.23,-829.624C1149.07,-829.314 1148.92,-829.012 1148.78,-828.718C1148.65,-828.423 1148.39,-828.106 1148.01,-827.765L1148.01,-827.812C1147.41,-827.223 1146.95,-826.82 1146.62,-826.604L1146.62,-826.65C1146.39,-826.472 1146.17,-826.301 1145.98,-826.139C1145.91,-826.076 1145.84,-826.015 1145.77,-825.953C1145.66,-825.856 1145.57,-825.749 1145.51,-825.633C1145.44,-825.49 1145.4,-825.334 1145.4,-825.163L1145.4,-824.652C1144.91,-824.435 1144.31,-824.025 1143.61,-823.421C1143.26,-823.128 1142.93,-822.824 1142.61,-822.509C1142.26,-822.175 1141.93,-821.829 1141.61,-821.47C1140.98,-820.773 1140.44,-820.091 1139.98,-819.425C1139.52,-818.759 1139.29,-818.256 1139.29,-817.915C1137.65,-817.11 1136.42,-816.212 1135.58,-815.221C1134.73,-814.23 1134,-813.274 1133.41,-812.34C1132.64,-811.107 1131.77,-809.962 1130.77,-808.925C1130.45,-808.598 1130.12,-808.269 1129.8,-807.939C1129.08,-807.209 1128.33,-806.462 1127.55,-805.696L1126.81,-804.906C1126.59,-804.721 1126.34,-804.543 1126.04,-804.372L1125.1,-803.838C1124.99,-803.776 1124.66,-803.513 1124.12,-803.048C1123.58,-802.583 1122.99,-802.026 1122.37,-801.375C1121.74,-800.725 1121.14,-800.036 1120.57,-799.308C1120,-798.58 1119.66,-797.922 1119.56,-797.333C1119.17,-797.209 1118.75,-796.969 1118.29,-796.613C1117.83,-796.257 1117.41,-795.878 1117.03,-795.475C1116.65,-795.072 1116.32,-794.685 1116.05,-794.313C1115.78,-793.942 1115.64,-793.663 1115.64,-793.477C1114.61,-793.291 1113.94,-793.136 1113.64,-793.013C1113.35,-792.889 1113.06,-792.78 1112.79,-792.687L1112.87,-792.687C1112.33,-792.471 1111.74,-792.285 1111.12,-792.13C1110.49,-791.975 1109.5,-791.897 1108.14,-791.897C1106.08,-791.897 1104.3,-792.192 1102.8,-792.78C1101.31,-793.369 1100.56,-794.19 1100.56,-795.243C1100.56,-795.738 1100.75,-796.164 1101.13,-796.52C1101.51,-796.877 1102.01,-797.179 1102.64,-797.426C1103.26,-797.674 1103.97,-797.891 1104.76,-798.077C1105.55,-798.263 1106.35,-798.433 1107.16,-798.588C1107.05,-798.836 1106.97,-799.076 1106.92,-799.308C1106.86,-799.54 1106.84,-799.78 1106.84,-800.028C1106.84,-801.143 1107.48,-802.196 1108.75,-803.187C1110.03,-804.179 1111.46,-805.077 1113.03,-805.882C1113.25,-806.347 1113.52,-806.804 1113.85,-807.253C1114.17,-807.702 1114.56,-808.143 1114.99,-808.577L1114.99,-808.53C1115.42,-809.026 1115.81,-809.522 1116.13,-810.017C1116.46,-810.513 1116.81,-810.993 1117.19,-811.457C1117.57,-811.922 1118.02,-812.348 1118.54,-812.735C1119.05,-813.122 1119.75,-813.44 1120.62,-813.688L1123.43,-816.498C1124.38,-817.443 1125.42,-818.396 1126.57,-819.356L1126.4,-819.565C1126.35,-819.642 1126.32,-819.743 1126.32,-819.867C1126.32,-820.362 1126.53,-820.796 1126.93,-821.168C1127.34,-821.539 1127.82,-821.896 1128.36,-822.236L1128.36,-822.189L1129.3,-822.887C1129.34,-822.92 1129.39,-822.955 1129.43,-822.989C1129.66,-823.181 1129.82,-823.394 1129.91,-823.63C1130.3,-823.828 1130.67,-824.023 1131,-824.215C1131.59,-824.55 1132.08,-824.878 1132.48,-825.198L1132.37,-825.276L1132.4,-825.304L1132.51,-825.22C1132.66,-825.342 1132.8,-825.462 1132.93,-825.581C1133.14,-825.785 1133.35,-825.989 1133.55,-826.192C1133.96,-826.604 1134.33,-827.012 1134.68,-827.417C1135.19,-828.021 1135.78,-828.625 1136.43,-829.229C1137.08,-829.833 1138.12,-830.475 1139.53,-831.157L1139.53,-831.482C1139.53,-831.854 1139.73,-832.318 1140.14,-832.876C1140.46,-833.316 1140.84,-833.761 1141.28,-834.21C1141.4,-834.33 1141.52,-834.451 1141.65,-834.572C1142.25,-835.145 1142.9,-835.694 1143.61,-836.221C1144.31,-836.747 1144.94,-837.166 1145.48,-837.475L1145.48,-837.568C1145.48,-838.299 1145.8,-839.002 1146.42,-839.679C1146.62,-839.892 1146.85,-840.102 1147.11,-840.309C1147.49,-840.613 1147.89,-840.907 1148.3,-841.192C1149.07,-841.72 1149.89,-842.224 1150.78,-842.679C1151.21,-842.9 1151.54,-843.144 1151.76,-843.422L1152.41,-844.282C1152.63,-844.576 1152.87,-844.87 1153.14,-845.165C1153.42,-845.459 1153.8,-845.714 1154.29,-845.931C1154.35,-846.21 1154.41,-846.477 1154.49,-846.732ZM1168.23,-841.64L1169.2,-841.009L1190.88,-841.009L1190.88,-814.614L1162.52,-814.614L1128,-792L1128,-799.772L1128.38,-800.107L1128.84,-800.494C1130.4,-801.06 1131.68,-802.232 1132.6,-803.523C1133.57,-804.476 1134.49,-805.401 1135.36,-806.298C1136.58,-807.561 1137.66,-808.945 1138.59,-810.453C1139.06,-811.188 1139.66,-811.988 1140.37,-812.815C1140.82,-813.342 1141.51,-813.787 1142.38,-814.215C1143.76,-814.895 1144.68,-815.987 1144.93,-817.207L1145.03,-817.356L1145.3,-817.73L1148.09,-820.665L1148.45,-820.939L1148.26,-820.841C1151.74,-823.516 1154.28,-826.35 1155.88,-829.345C1156.41,-829.812 1156.98,-830.289 1157.57,-830.776C1158.54,-831.576 1159.52,-832.408 1160.49,-833.273C1161.66,-834.31 1162.61,-835.321 1163.37,-836.299L1163.37,-836.309C1164.06,-837.206 1164.74,-838.027 1165.4,-838.771C1166.06,-839.509 1166.76,-840.234 1167.49,-840.944L1168.23,-841.64ZM1128,-827.984L1128,-868L1151.66,-852.501C1151.49,-852.292 1151.32,-852.083 1151.16,-851.872C1150.64,-851.178 1150.17,-850.453 1149.75,-849.699C1149.5,-849.245 1149.28,-848.755 1149.09,-848.228L1148.48,-847.711C1148.09,-847.292 1147.74,-846.873 1147.43,-846.454L1147.17,-846.107C1145.63,-845.274 1144.24,-844.358 1142.99,-843.361C1141.95,-842.535 1141.2,-841.673 1140.68,-840.803L1140.26,-839.845L1139.62,-839.379C1138.74,-838.723 1137.93,-838.037 1137.18,-837.323C1136.38,-836.55 1135.7,-835.784 1135.15,-835.031L1134.47,-833.81C1133.44,-833.194 1132.63,-832.596 1132.03,-832.038C1131.23,-831.303 1130.52,-830.567 1129.89,-829.832C1129.48,-829.344 1129,-828.849 1128.48,-828.348C1128.35,-828.226 1128.19,-828.106 1128,-827.984Z" style="fill:rgb(52,42,33);"/>
    </g>
</svg>
