<?xml version="1.0" encoding="UTF-8" standalone="no"?>
<!DOCTYPE svg PUBLIC "-//W3C//DTD SVG 1.1//EN" "http://www.w3.org/Graphics/SVG/1.1/DTD/svg11.dtd">
<svg width="100%" height="100%" viewBox="0 0 86 55" version="1.1" xmlns="http://www.w3.org/2000/svg" xmlns:xlink="http://www.w3.org/1999/xlink" xml:space="preserve" xmlns:serif="http://www.serif.com/" style="fill-rule:evenodd;clip-rule:evenodd;stroke-linejoin:round;stroke-miterlimit:2;">
    <g transform="matrix(-0.553033,-6.7727e-17,8.81329e-17,-0.71966,658.597,-569.97)">
        <path d="M1169.2,-841.009L1190.88,-841.009L1190.88,-814.614L1162.52,-814.614L1128,-792L1128,-868L1169.2,-841.009Z" style="fill:rgb(52,42,33);"/>
    </g>
    <g transform="matrix(0.0989533,-0.0571307,0.0571307,0.0989533,9.04911,18.1636)">
        <path d="M239.425,93.024C245.045,102.412 249.251,112.096 252.457,122.059C264.728,160.189 261.625,203.57 262.365,249.282C263.105,294.992 268.122,343.349 299.095,389.252C324.765,427.294 367.855,463.066 439.085,495.156C359.522,490.31 308.955,472.113 275.975,446.883C236.434,416.635 220.624,375.718 210.22,330.965C200.012,287.053 195.65,239.99 178.379,198.759L239.425,93.024ZM155.933,237.636C161.644,240.152 167.486,242.525 173.441,244.791C178.576,265.79 182.352,288.178 186.836,310.838C163.651,307.176 141.372,303.912 120.302,299.351L155.933,237.636ZM273.935,129.508C368.214,150.151 459.748,196.746 469.525,342.444C422.543,248.514 350.968,222.664 280.998,212.104C281.031,184.251 280.44,156.47 273.935,129.508ZM282.444,279.638C367.016,307.857 451.268,351.815 492.798,487.025C426.508,397.382 358.138,356.395 292.918,334.605C286.954,316.544 283.954,298.198 282.444,279.638Z" style="fill:rgb(52,42,33);"/>
    </g>
</svg>
