<?xml version="1.0" encoding="UTF-8" standalone="no"?>
<!DOCTYPE svg PUBLIC "-//W3C//DTD SVG 1.1//EN" "http://www.w3.org/Graphics/SVG/1.1/DTD/svg11.dtd">
<svg width="100%" height="100%" viewBox="0 0 267 122" version="1.1" xmlns="http://www.w3.org/2000/svg" xmlns:xlink="http://www.w3.org/1999/xlink" xml:space="preserve" xmlns:serif="http://www.serif.com/" style="fill-rule:evenodd;clip-rule:evenodd;stroke-linejoin:round;stroke-miterlimit:2;">
    <g transform="matrix(-1,-1.22465e-16,1.22465e-16,-1,979.618,1351)">
        <path d="M861.858,1305.13C846.426,1305.31 829.197,1307.28 825.856,1307.33C817.382,1307.45 806.903,1306.99 798.434,1307.33C787.268,1307.77 758.118,1302.75 746.961,1303.39C737.15,1303.96 727.354,1305.35 717.528,1305.13C716.436,1305.11 714.036,1299.08 713.497,1293.66C713.06,1289.28 714.211,1283.61 717.528,1285.21C747.927,1299.92 746.572,1293.22 746.961,1286.95C747.654,1275.8 797.268,1290.23 808.434,1290.67C815.003,1290.93 847.885,1291.32 863.953,1291.5C864.005,1289 864.049,1286.33 864.082,1283.46C864.213,1272.24 864.413,1271.03 864.496,1259.81C864.54,1253.94 864.458,1248.07 864.463,1242.2C864.463,1242.08 864.576,1241.95 864.512,1241.86C864.318,1241.59 863.974,1241.45 863.757,1241.19C863.395,1240.76 863.046,1240.31 862.783,1239.81C862.641,1239.55 861.893,1238.13 861.858,1236.14C861.846,1235.42 861.834,1234.68 862.053,1234C862.527,1232.52 863.441,1231.21 863.916,1229.73C864.777,1230.1 865.748,1230.17 866.61,1230.55C867.103,1230.76 870.096,1232.06 871.415,1235.25C871.663,1235.85 871.735,1236.51 871.891,1237.14C871.912,1237.23 871.937,1237.21 872.598,1237.63C886.417,1246.38 886.402,1236.4 900.354,1244.94C917.385,1255.37 934.435,1265.76 951.495,1276.14C960.239,1281.45 969.021,1286.71 977.766,1292.03C978.17,1292.27 978.548,1292.67 978.829,1293.16C979.061,1293.19 979.321,1293.21 979.618,1293.21C979.406,1293.33 979.226,1293.49 979.069,1293.66C979.356,1294.41 979.414,1295.28 979.056,1296.13C978.724,1296.92 977.721,1298.13 976,1298.13C975.535,1298.12 975.077,1298.12 974.625,1298.12C949.939,1311.51 904.62,1323.72 879.792,1336.85C871.898,1341.03 864.235,1345.62 856.457,1350.01C855.847,1350.36 853.848,1351.74 850.708,1350.49C850.572,1350.44 850.459,1350.34 850.321,1350.29C850.104,1350.2 849.867,1350.19 849.652,1350.1C849.369,1349.99 847.772,1349.35 846.588,1347.85C846.445,1347.67 845.489,1346.46 845.238,1345.31C841.472,1328.09 861.06,1332.15 861.858,1305.13ZM964.243,1291.87L875.716,1251.13L879.154,1291.66C890.445,1291.79 901.736,1286.92 913.027,1286.95C930.099,1287 947.171,1291.88 964.243,1291.87ZM877.607,1303.39L861.912,1332.19L963.327,1298.06C943.748,1297.94 939.606,1297.88 913.027,1298.05C901.281,1298.13 887.912,1303.29 877.607,1303.39Z"/>
    </g>
</svg>
