<?xml version="1.0" encoding="UTF-8" standalone="no"?>
<!DOCTYPE svg PUBLIC "-//W3C//DTD SVG 1.1//EN" "http://www.w3.org/Graphics/SVG/1.1/DTD/svg11.dtd">
<svg width="100%" height="100%" viewBox="0 0 264 132" version="1.1" xmlns="http://www.w3.org/2000/svg" xmlns:xlink="http://www.w3.org/1999/xlink" xml:space="preserve" xmlns:serif="http://www.serif.com/" style="fill-rule:evenodd;clip-rule:evenodd;stroke-linejoin:round;stroke-miterlimit:2;">
    <g transform="matrix(1,0,0,1,-715.981,-1219.73)">
        <path d="M863.777,1298.5C850.38,1298.65 831.212,1303.79 826.577,1303.86C825.873,1303.87 834.297,1298.88 833.856,1298.88C825.382,1299.01 816.903,1298.99 808.434,1299.33C797.268,1299.77 786.118,1304.58 774.961,1305.22C765.15,1305.79 755.354,1307.18 745.528,1306.96C743.552,1306.92 726.158,1302.53 720.99,1300.02C719.811,1299.44 732.382,1298.22 731.455,1297.3C731.442,1297.28 715.977,1295 715.981,1294.99C717.545,1291.48 717.199,1290.61 720.99,1289.98C729.117,1288.63 737.292,1287.22 745.528,1287.04C755.354,1286.82 765.15,1288.21 774.961,1288.78C786.118,1289.42 797.268,1290.23 808.434,1290.67C815.003,1290.93 847.885,1291.32 863.953,1291.5C864.005,1289 864.049,1286.33 864.082,1283.46C864.213,1272.24 864.413,1261.03 864.496,1249.81C864.54,1243.94 864.458,1238.07 864.463,1232.2C864.463,1232.08 864.576,1231.95 864.512,1231.86C864.318,1231.59 863.974,1231.45 863.757,1231.19C863.395,1230.76 863.046,1230.31 862.783,1229.81C862.641,1229.55 861.893,1228.13 861.858,1226.14C861.846,1225.42 861.834,1224.68 862.053,1224C862.527,1222.52 863.441,1221.21 863.916,1219.73C864.777,1220.1 865.748,1220.17 866.61,1220.55C867.103,1220.76 870.096,1222.06 871.415,1225.25C871.663,1225.85 871.735,1226.51 871.891,1227.14C871.912,1227.23 871.937,1227.21 872.598,1227.63C886.417,1236.38 886.402,1236.4 900.354,1244.94C917.385,1255.37 934.435,1265.76 951.495,1276.14C960.239,1281.45 969.021,1286.71 977.766,1292.03C978.17,1292.27 978.548,1292.67 978.829,1293.16C979.061,1293.19 979.321,1293.21 979.618,1293.21C979.406,1293.33 979.226,1293.49 979.069,1293.66C979.356,1294.41 979.414,1295.28 979.056,1296.13C978.724,1296.92 977.721,1298.13 976,1298.13C975.535,1298.12 975.077,1298.12 974.625,1298.12C949.939,1311.51 924.62,1323.72 899.792,1336.85C891.898,1341.03 884.235,1345.62 876.457,1350.01C875.847,1350.36 873.848,1351.74 870.708,1350.49C870.572,1350.44 870.459,1350.34 870.321,1350.29C870.104,1350.2 869.867,1350.19 869.652,1350.1C869.369,1349.99 867.772,1349.35 866.588,1347.85C866.445,1347.67 865.489,1346.46 865.238,1345.31C861.472,1328.09 862.979,1325.52 863.777,1298.5ZM964.243,1291.87L875.716,1241.13L879.154,1291.66C890.445,1291.79 901.736,1291.92 913.027,1291.95C930.099,1292 947.171,1291.88 964.243,1291.87ZM879.607,1298.33L881.912,1332.19L963.327,1298.06C943.748,1297.94 939.606,1297.88 913.027,1298.05C901.281,1298.13 889.912,1298.23 879.607,1298.33Z"/>
    </g>
</svg>
