<?xml version="1.0" encoding="UTF-8" standalone="no"?>
<!DOCTYPE svg PUBLIC "-//W3C//DTD SVG 1.1//EN" "http://www.w3.org/Graphics/SVG/1.1/DTD/svg11.dtd">
<svg width="100%" height="100%" viewBox="0 0 212 212" version="1.1" xmlns="http://www.w3.org/2000/svg" xmlns:xlink="http://www.w3.org/1999/xlink" xml:space="preserve" xmlns:serif="http://www.serif.com/" style="fill-rule:evenodd;clip-rule:evenodd;stroke-linejoin:round;stroke-miterlimit:2;">
    <g transform="matrix(0.252285,0,0,0.252285,-23.6292,-23.6295)">
        <path d="M634.442,216.104L807.897,216.104L807.897,389.559L930.339,512.001L807.897,634.443L807.897,807.898L634.442,807.898L512,930.34L389.558,807.898L216.103,807.898L216.103,634.443L93.661,512.001L216.103,389.559L216.103,216.104L389.558,216.104L512,93.662L634.442,216.104ZM395.065,229.403L229.403,229.403L229.403,395.065L112.468,512L229.403,628.935L229.403,794.597L395.065,794.597L512,911.532L628.935,794.597L794.597,794.597L794.597,628.935L911.532,512L794.597,395.065L794.597,229.403L628.935,229.403L512,112.468L395.065,229.403Z" style="fill-rule:nonzero;"/>
    </g>
    <g transform="matrix(0.252285,0,0,0.252285,-23.6292,-23.6295)">
        <path d="M632.686,777.974C629.361,769.995 625.372,762.68 622.047,754.701L630.691,746.057C635.346,754.701 639.335,763.345 643.99,772.654C645.32,775.314 646.65,777.973 647.98,781.298L634.681,781.298C633.351,779.968 633.351,779.303 632.686,777.973L632.686,777.974ZM389.984,781.299L376.685,781.299C378.015,778.639 379.345,775.98 380.675,772.655C385.33,764.011 389.319,754.702 393.974,746.058L402.618,754.702C399.293,762.681 395.304,769.996 391.979,777.975C391.314,779.305 390.649,779.97 389.984,781.3L389.984,781.299ZM391.979,246.025C395.304,254.004 399.293,261.319 402.618,269.298L393.974,277.942C389.319,269.298 385.33,259.989 380.675,251.345C379.345,248.685 378.015,246.026 376.685,242.701L389.984,242.701C390.649,244.031 391.314,244.696 391.979,246.026L391.979,246.025ZM634.016,242.701L647.315,242.701C645.985,245.361 644.655,248.685 643.325,251.345C639.335,259.989 634.681,268.633 630.026,277.277L622.047,269.298C625.372,261.319 629.361,254.004 632.686,246.69C633.351,244.695 633.351,244.03 634.016,242.7L634.016,242.701ZM781.631,704.831C770.992,697.517 760.353,690.202 749.714,682.223C739.075,674.909 728.436,666.929 717.797,659.615L725.776,651.636C736.415,658.285 746.389,665.6 757.028,672.25C765.672,677.569 773.651,683.554 782.296,689.538L782.296,704.832L781.631,704.831ZM781.631,390.316C780.301,390.981 779.636,391.646 778.306,391.646C770.327,394.971 763.012,398.96 755.033,402.285L746.389,393.641C755.033,388.986 763.677,384.997 772.986,380.342C775.646,379.012 778.305,377.682 781.63,376.352L781.631,390.316ZM781.631,373.028C778.306,375.023 774.982,376.353 772.322,378.347C763.013,383.002 754.369,387.656 745.06,392.311L737.081,384.332C747.055,379.013 756.364,373.028 766.338,367.709C771.657,365.049 776.977,361.725 781.632,359.065L781.631,373.028ZM781.631,354.41C775.647,357.735 770.327,361.059 764.343,364.384C754.369,370.368 744.395,376.353 734.421,381.672L726.442,373.693C737.081,367.044 747.055,360.394 757.694,353.745C765.673,349.09 773.652,343.771 780.967,339.116L780.967,354.41L781.631,354.41ZM781.631,335.127C772.987,340.446 765.008,346.431 756.363,352.415C746.389,359.064 735.75,366.379 725.111,373.028L717.132,365.049C727.771,357.735 738.41,349.755 749.049,342.441C759.688,335.127 770.327,327.812 780.966,319.833L780.966,335.127L781.631,335.127ZM781.631,313.849L747.719,339.781L715.802,363.719L708.488,355.74C719.127,347.096 729.766,338.452 740.405,330.472C753.704,319.833 767.667,309.194 781.631,298.555L781.631,313.849ZM781.631,684.218C773.652,679.563 766.337,674.244 758.358,669.589C747.719,662.939 737.745,656.29 727.106,649.64L735.085,641.661C745.059,647.645 754.368,652.965 764.342,658.949C770.326,662.274 775.646,665.599 781.63,668.924L781.631,684.218ZM781.631,664.934C776.312,662.274 770.992,658.95 766.337,656.29C756.363,650.971 747.054,645.651 737.08,639.667L745.059,631.688C753.703,636.343 763.012,640.997 771.656,645.652C774.981,647.647 778.305,648.977 780.965,650.971L780.965,664.935L781.631,664.934ZM781.631,646.981C778.971,645.651 776.312,644.321 772.987,642.991C764.343,639.001 755.699,634.347 747.055,630.357L755.699,621.713C763.013,625.038 770.993,628.362 778.307,632.352C779.637,633.017 780.302,633.017 781.632,633.682L781.631,646.981ZM788.945,587.802C790.275,588.467 792.27,588.467 793.6,589.132C799.584,590.462 804.904,592.457 810.888,593.787L800.914,603.761C797.589,602.431 793.6,601.766 790.275,600.436C786.95,599.106 782.961,598.441 779.636,597.111L788.945,587.802ZM794.265,586.472C793.6,586.472 792.27,585.807 791.605,585.807L801.579,575.168C808.893,577.163 816.873,578.493 824.187,580.487L813.548,591.126C807.564,589.796 800.914,587.801 794.265,586.471L794.265,586.472ZM804.239,572.508L814.878,561.869L838.816,565.859L828.177,576.498C820.198,575.833 812.219,573.838 804.239,572.508ZM818.203,558.545L829.507,547.241C838.151,548.571 846.13,549.236 854.775,550.566L843.471,561.87C834.827,561.205 826.183,559.875 818.203,558.545ZM833.496,543.916L845.465,531.947L871.397,533.942L859.428,545.911L833.496,543.916ZM849.455,527.293L862.089,514.659C871.398,514.659 880.042,515.324 889.351,515.324L876.717,527.958C868.073,527.958 858.764,527.958 849.455,527.293ZM862.088,509.34L849.454,496.706C858.763,496.706 867.407,496.041 876.716,496.041L889.35,508.675C880.706,508.675 871.397,509.34 862.088,509.34ZM845.465,492.051L833.496,480.082L859.428,478.087L871.397,490.056L845.465,492.051ZM829.506,476.758L818.202,465.454C826.181,464.124 834.825,463.459 842.805,462.129L854.109,473.433C846.13,474.098 837.486,475.428 829.506,476.758ZM814.878,462.129L804.239,451.49C812.218,450.16 820.197,448.165 827.512,446.835L838.151,457.474C830.837,459.469 822.857,460.799 814.878,462.129ZM801.579,448.831L791.605,438.857C792.27,438.857 793.6,438.192 794.265,438.192C800.914,436.862 807.564,434.867 814.213,433.537L824.852,444.176C816.873,444.841 809.558,446.836 801.579,448.831ZM793.6,434.867C792.27,435.532 790.275,435.532 788.945,436.197L779.636,426.888C782.961,425.558 786.95,424.893 790.275,423.563C793.6,422.233 797.589,421.568 800.914,420.238L810.888,430.212C804.904,431.542 799.584,432.872 793.6,434.867ZM788.945,420.238L776.976,424.228L767.667,414.919C773.651,412.924 778.971,410.929 784.955,408.27C786.285,407.605 786.95,407.605 788.28,406.94L797.589,416.249C794.929,418.244 792.27,418.909 788.945,420.239L788.945,420.238ZM784.291,405.61C778.307,408.27 772.322,410.265 766.338,412.924L757.694,404.28C765.008,400.955 772.323,397.631 780.302,394.306C780.967,394.306 781.632,393.641 782.297,393.641L782.297,400.29L786.952,404.945C785.622,405.61 784.957,405.61 784.292,405.61L784.291,405.61ZM738.41,327.147C727.771,335.791 717.132,344.435 706.493,353.744L698.514,345.765C709.153,336.456 719.792,327.147 729.766,317.838C747.054,303.209 763.678,288.581 780.966,273.952L780.966,290.575C767.002,303.209 753.039,315.178 738.41,327.146L738.41,327.147ZM781.631,265.973C764.343,282.596 746.389,299.22 728.436,315.843C718.462,325.152 707.823,335.126 697.184,344.435L689.205,336.456C699.179,326.482 709.153,316.508 719.792,306.534C740.405,286.586 761.018,267.303 781.631,247.355L781.631,265.973ZM717.797,304.54C707.823,314.514 697.849,324.488 687.875,335.127L679.896,327.148C689.205,316.509 699.179,306.535 708.488,295.896C725.111,277.943 741.735,259.99 759.023,242.701L776.976,242.701C757.693,263.314 737.745,283.927 717.797,304.54ZM706.494,293.901C697.185,304.54 687.876,315.179 678.567,325.153L670.588,317.174C679.232,306.535 687.876,295.896 697.185,285.257C709.154,270.628 721.123,256.665 733.756,242.036L751.044,242.036C735.75,259.989 721.122,277.278 706.493,293.901L706.494,293.901ZM694.525,283.927C685.881,294.566 677.237,305.205 669.257,315.844L661.943,308.53L685.881,276.613L711.813,242.701L727.771,242.701C715.802,256.665 705.163,269.963 694.524,283.927L694.525,283.927ZM682.556,275.282C675.242,285.921 667.262,296.56 659.948,307.199L651.969,299.22C658.618,288.581 665.933,278.607 672.582,267.968C677.901,259.324 683.886,251.345 689.87,242.7L705.164,242.7C697.85,253.339 689.87,263.978 682.556,275.282ZM669.922,266.638C663.273,277.277 656.623,287.251 649.974,297.89L642.66,289.246C648.644,279.272 653.964,269.298 659.948,259.989C663.273,254.005 666.597,248.685 670.587,242.701L685.216,242.701C679.897,250.68 675.242,258.659 669.922,266.639L669.922,266.638ZM656.623,258.659C651.304,268.633 645.984,277.942 640,287.916L632.021,279.937C636.676,271.293 641.33,261.984 645.985,253.34C647.98,250.015 649.31,246.691 651.304,243.366L665.268,243.366C662.608,248.021 659.949,253.34 656.624,258.66L656.623,258.659ZM600.104,247.355L604.094,235.386C605.424,232.061 606.089,229.402 607.419,226.077L616.728,235.386C616.063,236.716 616.063,238.046 615.398,238.711C613.403,244.695 611.408,250.015 609.414,255.999L600.104,247.355ZM601.434,234.721C600.104,238.046 599.439,242.035 598.109,245.36L588.8,236.051C589.465,234.721 589.465,233.391 590.13,231.396C592.125,225.412 593.455,220.092 595.449,214.108L605.423,224.082C603.428,227.407 602.098,230.731 601.433,234.721L601.434,234.721ZM586.805,230.067C586.805,230.732 586.14,232.062 586.14,232.727L575.501,222.753C577.496,215.439 578.826,207.459 580.82,200.145L591.459,210.784C590.129,217.433 588.134,223.418 586.804,230.067L586.805,230.067ZM572.842,220.093L562.203,209.454L566.193,185.516L576.832,196.155C576.167,204.134 574.172,212.113 572.842,220.093ZM558.878,206.129L547.574,194.825C548.904,186.181 549.569,178.202 550.899,169.557L562.203,180.861C561.538,189.505 560.208,198.149 558.878,206.129ZM544.249,190.836L532.28,178.867L534.275,152.935L546.244,164.904L544.249,190.836ZM527.626,174.877L514.992,162.243C515.657,152.934 515.657,144.29 515.657,134.981L528.291,147.615C528.291,156.259 528.291,165.568 527.626,174.877ZM509.673,162.243L497.039,174.877C497.039,165.568 496.374,156.924 496.374,147.615L509.008,134.981C509.008,143.625 509.673,152.934 509.673,162.243ZM492.384,178.867L480.415,190.836L478.42,164.904L490.389,152.935L492.384,178.867ZM477.091,194.825L465.787,206.129C464.457,198.15 463.792,189.506 462.462,181.526L473.766,170.222C475.096,178.201 475.761,186.18 477.091,194.825ZM462.462,209.454L451.823,220.093C450.493,212.114 448.498,204.135 447.168,196.82L457.807,186.181C459.802,193.495 461.132,201.475 462.462,209.454ZM449.164,222.753L439.19,232.727C439.19,231.397 438.525,230.732 438.525,229.402C437.195,222.753 435.2,216.768 433.87,210.119L444.509,199.48C445.839,207.459 447.169,214.774 449.164,222.753ZM435.2,230.732C435.865,232.062 435.865,234.057 436.53,235.387L427.221,244.696C425.891,240.706 425.226,237.382 423.896,233.392C422.566,230.067 421.901,226.743 420.571,222.753L430.545,212.779C431.875,219.428 433.205,224.748 435.2,230.732ZM420.571,234.721L424.561,246.69L415.252,255.999C413.257,250.015 411.262,244.695 408.603,238.711C407.938,237.381 407.938,236.716 407.273,235.386L417.247,225.412C418.577,229.402 419.242,232.061 420.572,234.721L420.571,234.721ZM243.034,634.347C244.364,633.682 245.029,633.017 246.359,633.017C254.338,629.692 261.653,625.703 269.632,622.378L278.276,631.022C269.632,635.677 260.323,639.666 251.679,644.321C249.019,645.651 246.36,646.981 243.035,648.311L243.034,634.347ZM243.034,319.168C253.673,326.482 264.977,334.462 275.616,341.776C286.255,349.09 296.894,357.07 307.533,364.384L299.554,372.363C288.915,365.714 278.941,359.064 268.302,351.75C259.658,345.766 251.014,340.446 243.034,334.462L243.034,319.168ZM243.034,339.781C251.013,344.436 258.992,349.755 266.972,354.41C277.611,361.059 287.585,367.709 297.559,373.693L289.58,382.337C279.606,376.353 270.297,371.033 260.323,365.049C254.339,361.724 249.019,357.735 243.035,354.41L243.034,339.781ZM243.034,358.399C248.353,361.059 253.673,364.383 258.992,367.043C268.966,372.362 278.275,377.682 288.249,383.666L279.605,392.31C270.961,387.655 261.652,383.001 253.008,378.346C249.683,376.351 246.359,375.021 243.034,373.027L243.034,358.399ZM243.034,376.353C245.694,377.683 249.018,379.013 251.678,380.343C260.322,384.333 268.966,388.987 277.61,393.642L269.631,402.286C262.317,398.961 254.337,395.637 247.023,391.647C245.693,390.982 244.363,390.317 243.698,389.652L243.698,376.353L243.034,376.353ZM243.034,651.636C246.359,649.641 249.683,648.311 252.343,646.317C261.652,641.662 270.296,637.008 279.605,632.353L287.584,640.332C277.61,645.651 267.636,651.636 257.662,656.955C252.343,659.615 247.023,662.939 242.368,665.6L242.368,651.636L243.034,651.636ZM243.034,670.255C249.018,666.93 254.338,663.605 260.322,659.615L290.244,641.662L298.223,649.641C287.584,656.29 277.61,662.94 266.971,669.59C258.992,674.245 251.677,679.564 243.698,684.219L243.698,670.255L243.034,670.255ZM243.034,689.538C251.678,683.554 259.657,678.234 268.302,672.915C278.941,666.266 289.58,658.951 299.554,652.301L307.533,660.28C296.894,668.26 286.255,675.574 274.951,683.553C264.312,690.867 253.673,698.182 243.034,706.161L243.034,689.538ZM243.034,710.816C254.338,702.172 265.642,693.528 276.946,685.548C287.585,677.569 298.224,669.59 308.863,661.61L316.177,668.925C305.538,677.569 294.234,686.213 283.595,694.857C270.296,705.496 256.333,716.135 242.369,726.774L242.369,710.816L243.034,710.816ZM378.016,252.675C382.671,261.984 387.325,270.628 391.98,279.937L384.001,287.916C378.682,277.942 372.697,267.968 367.378,257.994C364.718,252.675 361.394,247.355 358.734,242.7L372.698,242.7C374.693,246.025 376.023,249.349 378.017,252.674L378.016,252.675ZM364.717,259.989C370.701,269.963 376.686,279.937 382.005,289.911L374.026,297.89C367.377,287.251 360.727,277.277 354.078,266.638C349.423,258.659 344.104,250.68 339.449,243.365L354.078,243.365C357.403,248.684 361.392,254.004 364.717,259.988L364.717,259.989ZM351.418,267.968C358.067,278.607 365.382,288.581 372.031,299.22L364.052,307.199C356.738,296.56 348.758,285.921 341.444,275.282C334.13,264.643 326.815,254.004 318.836,243.365L334.13,243.365C340.114,251.344 346.099,259.323 351.418,267.968ZM339.449,276.612L363.387,308.529L355.408,316.508C346.764,305.869 338.12,295.23 329.476,283.926C318.837,270.627 308.198,256.664 297.559,242.7L313.517,242.7L339.449,276.612ZM327.481,285.921C336.125,296.56 345.434,307.199 354.078,317.838L346.099,325.817L318.172,293.9C303.543,276.612 288.915,259.988 274.286,242.7L291.574,242.7C302.878,257.329 314.847,271.292 327.48,285.921L327.481,285.921ZM315.512,295.895C325.486,306.534 334.795,317.173 344.104,327.147L336.79,334.461C326.816,324.487 316.842,313.848 306.868,303.874C287.585,283.926 267.637,263.313 248.354,242.035L265.642,242.035C282.265,260.653 298.889,277.941 315.512,295.895ZM304.873,306.534C314.847,316.508 324.821,326.482 335.46,336.456L328.146,343.77C317.507,334.461 307.533,325.152 296.894,315.178C278.941,298.555 260.988,281.931 243.034,264.643L243.034,247.355C263.647,267.303 284.26,287.251 304.873,306.534ZM294.234,317.838C304.873,327.147 314.847,336.456 325.486,345.765L317.507,353.744C306.868,345.1 296.229,336.456 285.59,327.147C270.961,315.178 256.333,302.544 242.369,290.576L242.369,273.953C260.322,288.582 277.611,303.21 294.234,317.839L294.234,317.838ZM284.26,329.807C294.899,338.451 305.538,347.095 316.177,355.075L308.198,363.054L276.281,339.116L242.369,313.184L242.369,297.226C256.998,307.865 270.296,318.504 284.26,329.808L284.26,329.807ZM243.034,400.29L243.034,392.976C243.699,392.976 244.364,393.641 245.029,393.641C252.343,396.966 259.658,400.29 266.972,402.95L258.328,411.594C252.344,408.934 246.359,406.939 240.375,404.28C239.71,404.28 239.045,403.615 238.38,403.615L243.034,400.29ZM239.709,408.934C245.028,410.929 251.013,412.924 256.997,414.918L247.688,424.227L235.719,420.237C232.394,418.907 229.735,418.242 226.41,416.912L236.384,406.938C237.049,407.603 238.379,408.268 239.709,408.933L239.709,408.934ZM234.39,423.563C237.715,424.893 241.704,425.558 245.029,426.888L235.72,436.197C234.39,435.532 233.06,435.532 231.065,434.867C225.081,433.537 219.096,431.542 213.777,430.212L223.751,420.238C227.076,420.903 231.065,422.233 234.39,423.563ZM230.4,438.192L233.06,438.857L222.421,448.831C215.107,446.836 207.127,445.506 199.813,443.512L210.452,432.873C217.101,434.868 223.751,436.198 230.4,438.192ZM219.761,451.49L209.122,462.129L185.184,458.139L195.823,447.5C204.467,448.83 211.781,450.16 219.761,451.49ZM205.797,465.454L194.493,476.758C185.849,475.428 177.87,474.763 169.225,473.433L180.529,462.129C189.838,463.459 197.817,464.789 205.797,465.454ZM191.169,480.747L179.2,492.716L153.268,490.721L165.237,478.752L191.169,480.747ZM174.545,497.371L161.911,510.005C152.602,510.005 143.958,509.34 134.649,509.34L147.283,496.706C156.592,496.706 165.236,496.706 174.545,497.371ZM162.577,514.659L175.211,527.293C165.902,527.293 157.258,527.958 147.949,527.958L135.315,515.324C144.624,515.324 153.268,515.324 162.577,514.659ZM179.865,531.947L191.834,543.916L165.902,545.911L153.933,533.942L179.865,531.947ZM195.158,547.906L206.462,559.21C198.483,560.54 189.839,561.205 181.859,562.535L170.555,551.231C178.534,549.901 187.178,548.571 195.158,547.906ZM209.787,561.869L220.426,572.508C212.447,573.838 204.468,575.833 197.153,577.163L186.514,566.524C193.828,565.194 201.808,563.199 209.787,561.869ZM223.086,575.168L233.06,585.142C231.73,585.142 231.065,585.807 229.735,585.807C223.086,587.137 217.101,589.132 210.452,590.462L199.813,579.823C207.792,579.158 215.771,577.163 223.086,575.168ZM231.065,589.797C233.06,589.132 234.39,589.132 236.384,588.467L245.693,597.776C241.703,599.106 238.379,600.436 234.389,601.101C231.064,602.431 227.74,603.096 224.415,604.426L214.441,594.452C219.76,592.457 225.08,591.127 231.064,589.797L231.065,589.797ZM235.055,604.425C239.045,603.095 243.699,601.765 247.689,600.435L256.998,609.744C251.014,611.739 245.029,614.399 239.71,616.393C239.045,617.058 237.715,617.058 237.05,617.723L227.076,607.749C229.736,606.419 232.395,605.089 235.055,604.424L235.055,604.425ZM240.374,618.389C246.358,615.729 253.008,613.734 258.992,611.075L267.636,619.719C260.322,623.044 252.342,626.368 245.028,629.693C244.363,629.693 243.698,630.358 243.033,630.358L243.033,623.044L239.043,619.054C239.043,619.054 239.708,619.054 240.373,618.389L240.374,618.389ZM286.255,697.517C296.894,688.873 307.533,679.564 318.172,670.92L326.151,678.899L294.234,706.826C276.946,721.455 260.322,736.083 243.034,750.712L243.034,733.424C257.663,721.455 271.626,709.486 286.255,697.518L286.255,697.517ZM243.034,758.691C260.322,742.068 278.276,725.444 296.229,708.821C306.868,698.847 316.842,689.538 327.481,680.229L334.795,687.543C324.821,697.517 314.182,707.491 304.208,717.465C283.595,737.413 263.647,756.696 242.369,775.979L242.369,758.691L243.034,758.691ZM306.868,719.46C316.842,709.486 326.816,698.847 336.79,688.873L344.104,696.187C334.795,706.826 324.821,717.465 315.512,727.439C298.889,745.392 282.265,763.345 265.642,780.634L248.354,780.634C266.972,760.686 286.92,740.073 306.868,719.46ZM318.171,730.099L346.098,698.182L354.077,706.161C345.433,716.8 336.124,727.439 327.48,738.078C315.511,752.707 303.542,766.67 290.909,781.299L273.621,781.299C288.25,764.011 302.878,746.722 318.172,730.099L318.171,730.099ZM329.475,740.073C338.119,729.434 346.763,718.13 355.407,707.491L363.386,715.47L339.448,747.387C330.804,758.691 322.16,769.995 314.18,781.299L298.222,781.299C308.196,767.335 318.835,754.037 329.474,740.073L329.475,740.073ZM341.444,749.382C348.758,738.743 356.738,728.104 364.052,717.465L372.031,725.444C365.382,736.083 358.067,746.057 351.418,756.696C346.099,765.34 340.114,773.319 334.13,781.964L318.836,781.964C326.815,770.66 334.13,760.021 341.444,749.382ZM354.078,758.026C360.727,747.387 367.377,737.413 374.026,726.774L382.005,734.753L364.052,764.675C360.727,770.659 357.403,775.979 353.413,781.963L338.784,781.963C344.103,773.319 349.423,766.005 354.078,758.025L354.078,758.026ZM367.377,766.005C372.696,756.031 378.681,746.057 384,736.083L392.644,744.727C387.989,754.036 383.335,762.68 378.68,771.989C376.685,775.314 375.355,778.638 373.361,781.963L359.397,781.963C361.392,775.979 364.052,770.659 367.376,766.005L367.377,766.005ZM424.561,776.644L420.571,788.613C419.241,791.273 418.576,794.597 417.246,797.257L407.272,787.283C407.937,785.953 407.937,785.288 408.602,783.958C410.597,777.974 412.592,772.654 415.251,766.67L424.561,776.644ZM423.231,789.943C424.561,785.953 425.226,782.629 426.556,778.639L435.865,787.948C435.2,789.278 435.2,791.273 434.535,792.603C433.205,798.587 431.21,803.907 429.88,809.891L419.906,799.917C421.236,797.257 422.566,793.268 423.231,789.943ZM437.86,794.597C437.86,793.267 438.525,792.602 438.525,791.272L449.164,801.246C447.169,808.56 445.839,816.54 443.845,823.854L433.206,813.215C435.201,807.231 436.531,800.581 437.861,794.597L437.86,794.597ZM451.823,803.906L462.462,814.545L458.472,838.483L447.833,827.844C448.498,819.865 450.493,811.886 451.823,803.906ZM465.787,817.87L477.091,829.174C475.761,837.818 475.096,845.797 473.766,854.442L462.462,843.138C463.127,834.494 464.457,826.515 465.787,817.87ZM481.081,833.164L493.05,845.133L491.055,871.065L479.086,859.096C479.086,850.452 479.751,841.808 481.081,833.164ZM497.039,849.122L509.673,861.756C509.673,871.065 509.008,879.709 509.008,889.018L496.374,876.384C496.374,867.74 497.039,858.431 497.039,849.122ZM514.992,861.756L527.626,849.122C527.626,858.431 528.291,867.075 528.291,876.384L515.657,889.018C515.657,879.709 515.657,871.065 514.992,861.756ZM532.281,844.468L544.25,832.499L546.245,858.431L534.276,870.4L532.281,844.468ZM548.239,829.174L559.543,817.87C560.873,825.849 561.538,834.493 562.868,842.473L551.564,853.777C550.234,845.798 548.904,837.154 548.239,829.174ZM562.203,814.545L572.842,803.906C574.172,811.885 576.167,819.864 577.497,827.179L566.858,837.818C564.863,830.504 563.533,822.524 562.203,814.545ZM575.501,801.247L585.475,791.273C585.475,791.938 586.14,793.268 586.14,793.933C587.47,800.582 589.465,807.232 590.795,813.881L580.156,824.52C579.491,816.541 577.496,808.562 575.501,801.247ZM589.465,793.268C588.8,791.938 588.8,789.943 588.135,788.613L597.444,779.304C598.774,782.629 599.439,786.618 600.769,789.943C602.099,793.268 602.764,797.257 604.094,800.582L594.12,810.556C592.79,804.572 591.46,798.587 589.465,793.268ZM604.094,788.613L600.104,776.644L609.413,767.335C611.408,773.319 613.403,778.639 616.062,784.623C616.727,785.953 616.727,786.618 617.392,787.948L608.083,797.257C606.088,794.597 605.423,791.938 604.093,788.613L604.094,788.613ZM645.984,771.325C641.329,762.681 636.675,753.372 632.02,744.728L639.999,736.749C645.318,746.723 651.303,756.032 656.622,766.006C659.282,771.325 662.606,776.645 665.266,781.3L651.302,781.3C649.972,777.975 647.977,774.651 645.983,771.326L645.984,771.325ZM659.283,764.01C653.299,754.036 647.979,744.062 641.995,734.753L649.974,726.774C656.623,737.413 663.273,747.387 669.922,758.026C674.577,766.005 679.896,773.984 684.551,781.299L669.922,781.299C666.597,775.315 663.273,769.995 659.283,764.011L659.283,764.01ZM672.582,756.031C665.933,745.392 658.618,735.418 651.969,724.779L659.948,716.8C667.262,727.439 675.242,738.078 682.556,748.717C689.87,759.356 697.185,769.995 705.164,780.634L689.87,780.634C683.886,772.655 678.566,764.676 672.582,756.031ZM685.216,747.387L661.278,715.47L668.592,708.156C677.236,718.795 685.88,729.434 693.86,740.738C704.499,754.037 715.138,768 725.777,781.964L709.819,781.964C702.505,769.995 693.861,758.691 685.216,747.387ZM697.184,738.078C688.54,727.439 679.231,716.8 670.587,706.161L678.566,698.182L706.493,730.099C721.122,747.387 735.75,764.011 750.379,781.299L733.091,781.299C721.122,766.67 709.153,752.707 697.185,738.078L697.184,738.078ZM709.153,728.104C699.844,717.465 689.87,707.491 680.561,696.852L688.54,688.873C698.514,698.847 708.488,709.486 718.462,719.46C738.41,740.073 757.693,760.686 777.641,781.299L759.688,781.299C742.4,763.346 725.776,746.057 709.153,728.104ZM719.792,717.465C709.818,707.491 699.844,697.517 689.205,687.543L697.184,679.564C707.823,688.873 717.797,698.847 728.436,708.156C746.389,724.779 764.342,741.403 781.631,758.026L781.631,775.979C761.018,756.696 740.405,736.748 719.792,717.465ZM730.431,706.161L698.514,678.234L706.493,670.255C717.132,678.899 727.771,687.543 738.41,696.852C753.039,708.821 767.002,720.79 781.631,733.423L781.631,750.046C764.343,735.417 747.719,720.789 730.431,706.16L730.431,706.161ZM740.405,694.192C729.766,685.548 719.127,676.904 708.488,668.924L715.802,661.609C726.441,669.589 737.08,677.568 747.719,685.547L781.631,711.479L781.631,727.437C767.667,715.468 754.369,704.829 740.405,694.19L740.405,694.192ZM781.631,623.708L781.631,630.357C780.966,630.357 780.301,629.692 779.636,629.692C772.322,626.367 764.342,623.043 757.028,619.718L765.672,611.074C771.656,613.734 777.641,615.729 783.625,618.388C784.29,618.388 784.955,619.053 785.62,619.053L781.631,623.708ZM784.956,615.064C778.972,613.069 773.652,611.074 767.668,608.415L776.977,599.106L788.946,603.096C791.606,604.426 794.93,605.091 797.59,606.421L788.281,615.73C787.616,616.395 786.286,615.73 784.956,615.065L784.956,615.064ZM630.691,242.701C630.691,243.366 630.026,244.031 630.026,244.696C626.701,252.01 623.377,259.325 620.717,266.639L612.073,257.995C614.733,252.011 616.728,246.026 619.387,240.042C619.387,239.377 620.052,238.712 620.052,238.047L624.707,242.702L630.691,242.701ZM405.278,238.046C405.278,238.711 405.943,239.376 405.943,240.041C408.603,246.025 410.598,252.01 413.257,258.659L404.613,267.303C401.288,259.989 397.964,252.009 394.639,244.695C394.639,244.03 393.974,243.365 393.974,242.7L401.288,242.7L405.278,238.046ZM393.974,781.299C393.974,780.634 394.639,779.969 394.639,779.304C397.964,771.99 401.288,764.01 404.613,756.696L413.257,765.34C410.597,771.324 408.602,777.309 405.943,783.958C405.943,784.623 405.278,785.288 405.278,785.953L400.623,781.298L393.974,781.299ZM619.387,785.953C619.387,785.288 618.722,784.623 618.722,783.958C616.062,777.974 614.067,771.989 611.408,766.005L620.052,757.361C623.377,764.675 626.701,771.99 630.026,779.969C630.026,780.634 630.691,781.299 630.691,781.964L624.042,781.964L619.387,785.953Z" style="fill-rule:nonzero;"/>
    </g>
</svg>
